<?xml version="1.0" encoding="utf-8"?>
<!-- Generator: Adobe Illustrator 16.0.3, SVG Export Plug-In . SVG Version: 6.00 Build 0)  -->
<!DOCTYPE svg PUBLIC "-//W3C//DTD SVG 1.1//EN" "http://www.w3.org/Graphics/SVG/1.1/DTD/svg11.dtd">
<svg version="1.1"
	 id="svg2" xmlns:dc="http://purl.org/dc/elements/1.1/" xmlns:cc="http://creativecommons.org/ns#" xmlns:rdf="http://www.w3.org/1999/02/22-rdf-syntax-ns#" xmlns:svg="http://www.w3.org/2000/svg"
	 xmlns="http://www.w3.org/2000/svg" xmlns:xlink="http://www.w3.org/1999/xlink" x="0px" y="0px" width="464.254px"
	 height="595.275px" viewBox="0 0 464.254 595.275" enable-background="new 0 0 464.254 595.275" xml:space="preserve">
<g id="Layer1000">
	<path id="path5" fill="#D3BB6D" d="M3.801,99.552H2.75c0,0-11.166,157.508,52.731,301.275
		c61.96,139.325,153.213,182.687,172.427,190.972c0.363,0.163,2.429,0.688,2.429,0.688l2.556,0.454
		c1.901-0.307,4.012-0.528,5.786-1.323c20.028-8.702,110.484-52.405,172.007-190.789C468.532,270.693,464.18,99.462,464.18,99.462
		C399.247,87.805,348.982,51.335,328.642,3.803h-85.233h-18.092h-85.216C119.871,51.08,68.245,87.679,3.801,99.552L3.801,99.552z"/>
	<path id="path7" fill="#FFFFFF" d="M324.815,18.885c0-4.007-3.243-7.252-7.251-7.252s-7.251,3.245-7.251,7.252
		c0,4.006,3.243,7.25,7.251,7.25S324.815,22.89,324.815,18.885z M225.59,577.87c0-4.008,3.244-7.251,7.25-7.251
		c4.008,0,7.251,3.243,7.251,7.251c0,4.006-3.243,7.251-7.251,7.251C228.834,585.121,225.59,581.876,225.59,577.87z
		 M120.095,492.898c0-4.009,3.245-7.252,7.251-7.252c4.005,0,7.251,3.243,7.251,7.252c0,4.005-3.246,7.251-7.251,7.251
		C123.339,500.149,120.095,496.903,120.095,492.898z M56.979,384.356c0-4.006,3.245-7.25,7.251-7.25c4.005,0,7.25,3.244,7.25,7.25
		c0,4.007-3.245,7.252-7.25,7.252S56.979,388.363,56.979,384.356z M20.8,248.522c0-4.006,3.245-7.251,7.25-7.251
		c4.006,0,7.251,3.245,7.251,7.251s-3.245,7.25-7.251,7.25C24.045,255.773,20.8,252.529,20.8,248.522z M12.851,115.214
		c0-4.006,3.244-7.25,7.251-7.25c4.005,0,7.25,3.245,7.25,7.25c0,4.007-3.245,7.251-7.25,7.251
		C16.095,122.465,12.851,119.22,12.851,115.214z M141.451,18.885c0-4.007,3.244-7.252,7.25-7.252c4.006,0,7.251,3.245,7.251,7.252
		c0,4.006-3.245,7.25-7.251,7.25C144.694,26.135,141.451,22.89,141.451,18.885z M346.164,492.898c0-4.009-3.243-7.252-7.25-7.252
		c-4.005,0-7.251,3.243-7.251,7.252c0,4.005,3.247,7.251,7.251,7.251C342.921,500.149,346.164,496.903,346.164,492.898z
		 M409.281,384.356c0-4.006-3.247-7.25-7.251-7.25c-4.007,0-7.25,3.244-7.25,7.25c0,4.007,3.243,7.252,7.25,7.252
		C406.034,391.608,409.281,388.363,409.281,384.356z M445.462,248.522c0-4.006-3.247-7.251-7.252-7.251
		c-4.008,0-7.25,3.245-7.25,7.251s3.242,7.25,7.25,7.25C442.215,255.773,445.462,252.529,445.462,248.522z M453.411,115.214
		c0-4.006-3.243-7.25-7.252-7.25c-4.004,0-7.25,3.245-7.25,7.25c0,4.007,3.246,7.251,7.25,7.251
		C450.167,122.465,453.411,119.22,453.411,115.214z"/>
	<path id="path9" fill="#FFFFFF" d="M324.815,18.885c0-4.008-3.243-7.25-7.251-7.25c-4.004,0-7.251,3.242-7.251,7.25
		c0,4.006,3.247,7.251,7.251,7.251C321.572,26.137,324.815,22.892,324.815,18.885z M225.59,577.87c0-4.005,3.245-7.251,7.25-7.251
		c4.008,0,7.251,3.246,7.251,7.251c0,4.006-3.243,7.251-7.251,7.251C228.835,585.121,225.59,581.876,225.59,577.87z
		 M120.095,492.898c0-4.007,3.245-7.252,7.251-7.252c4.006,0,7.251,3.245,7.251,7.252c0,4.005-3.245,7.251-7.251,7.251
		C123.34,500.149,120.095,496.903,120.095,492.898z M56.98,384.358c0-4.006,3.245-7.251,7.251-7.251c4.005,0,7.25,3.245,7.25,7.251
		c0,4.007-3.246,7.251-7.25,7.251C60.225,391.609,56.98,388.365,56.98,384.358z M20.801,248.522c0-4.006,3.244-7.251,7.251-7.251
		c4.005,0,7.25,3.245,7.25,7.251s-3.245,7.25-7.25,7.25C24.045,255.773,20.801,252.529,20.801,248.522z M12.851,115.216
		c0-4.008,3.245-7.251,7.251-7.251c4.005,0,7.25,3.243,7.25,7.251c0,4.007-3.245,7.251-7.25,7.251
		C16.096,122.467,12.851,119.222,12.851,115.216z M141.451,18.885c0-4.008,3.244-7.25,7.25-7.25c4.006,0,7.251,3.242,7.251,7.25
		c0,4.006-3.245,7.251-7.251,7.251C144.695,26.137,141.451,22.892,141.451,18.885z M346.164,492.898c0-4.007-3.243-7.252-7.25-7.252
		c-4.005,0-7.251,3.245-7.251,7.252c0,4.005,3.247,7.251,7.251,7.251C342.921,500.149,346.164,496.903,346.164,492.898z
		 M409.281,384.358c0-4.006-3.243-7.251-7.251-7.251c-4.004,0-7.25,3.245-7.25,7.251c0,4.007,3.246,7.251,7.25,7.251
		C406.038,391.609,409.281,388.365,409.281,384.358z M445.462,248.522c0-4.006-3.247-7.251-7.252-7.251
		c-4.008,0-7.25,3.245-7.25,7.251s3.242,7.25,7.25,7.25C442.215,255.773,445.462,252.529,445.462,248.522z M453.411,115.216
		c0-4.008-3.243-7.251-7.252-7.251c-4.004,0-7.25,3.243-7.25,7.251c0,4.007,3.246,7.251,7.25,7.251
		C450.167,122.467,453.411,119.222,453.411,115.216z"/>
	
		<linearGradient id="path18_1_" gradientUnits="userSpaceOnUse" x1="1113.1035" y1="0.4753" x2="1114.916" y2="0.4753" gradientTransform="matrix(218.1909 0 0 273.6343 -242833.5313 150.0671)">
		<stop  offset="0" style="stop-color:#19224A"/>
		<stop  offset="1" style="stop-color:#383F62"/>
	</linearGradient>
	<path id="path18" fill="url(#path18_1_)" d="M36.921,120.622h-0.907c0,0-9.625,142.367,45.409,266.193
		c31.992,71.963,73.058,115.107,104.381,139.662l-18.62-152.8c0.344-4.282,23.201-25.638,31.634-45.611
		c7.558-17.894,21.572-54.663,24.41-86.794c-3.785-1.08-6.554-4.563-6.554-8.692c0-4.99,4.048-9.039,9.04-9.039
		c1.312,0,2.559,0.28,3.685,0.784v16.508l-0.039,0.019v136.444c0,17.308-16.731,7.484-16.731,38.009
		c0,20.178,13.994,49.412,21.23,49.412c10.544,0,20.599-40.401,20.599-49.412c0-30.523-16.732-20.701-16.732-38.009V240.843
		l-0.021-0.009v-16.51c1.126-0.504,2.372-0.784,3.686-0.784c4.988,0,9.039,4.048,9.039,9.039c0,4.168-2.825,7.676-6.66,8.721
		c0.304,4.815,0.758,9.598,1.345,14.325c6.313,50.798,28.324,95.582,53.958,114.069l-18.248,158.442
		c31.571-24.261,73.78-67.728,106.499-141.321c49.812-112.08,43.286-266.267,43.286-266.267
		c-55.905-10.042-96.438-47.508-113.947-88.438H154.295C136.875,72.825,92.409,110.399,36.921,120.622L36.921,120.622z"/>
	<path id="path20" fill="#FFFFFF" d="M316.13,88.557c-4.971-1.191-9.938-2.317-14.909-3.363v87.181
		c-26.918,4.687-37.714,7.748-67.453,26.258c7.138-2.549,40.985-20.126,82.362-5.166c0-17.476,0-34.962,0-52.437
		S316.13,106.056,316.13,88.557L316.13,88.557z M292.699,76.435c-17.939,4.281-38.974,11.289-56.003,27.569v83.1
		c21.749-12.505,36.863-18.56,56.003-21.567V76.435L292.699,76.435z M284.882,145.528c-7.06,2.009-14.169,4.305-21.18,7.154
		c-7.105,2.886-14.126,6.332-21.189,10.06c0,1.636,0,3.271,0,4.906c7.063-3.726,14.084-7.169,21.189-10.055
		c7.01-2.85,14.12-5.146,21.18-7.154C284.882,148.802,284.882,147.167,284.882,145.528L284.882,145.528z M182.133,145.528
		c7.047,2.009,14.158,4.305,21.156,7.154c7.116,2.886,14.141,6.332,21.189,10.06c0,1.636,0,3.271,0,4.906
		c-7.048-3.726-14.073-7.169-21.189-10.055c-6.998-2.85-14.108-5.146-21.156-7.154C182.133,148.802,182.133,147.167,182.133,145.528
		L182.133,145.528z M182.133,94.67c7.047,2.008,14.158,4.305,21.156,7.152c7.116,2.887,14.141,6.332,21.189,10.06
		c0,1.637,0,3.271,0,4.906c-7.048-3.725-14.073-7.168-21.189-10.056c-6.998-2.846-14.108-5.145-21.156-7.151
		C182.133,97.944,182.133,96.308,182.133,94.67z M182.133,107.384c7.047,2.01,14.158,4.306,21.156,7.152
		c7.116,2.888,14.141,6.334,21.189,10.062c0,1.636,0,3.271,0,4.904c-7.048-3.725-14.073-7.168-21.189-10.053
		c-6.998-2.848-14.108-5.145-21.156-7.154C182.133,110.659,182.133,109.022,182.133,107.384z M182.133,120.099
		c7.047,2.008,14.158,4.304,21.156,7.151c7.116,2.889,14.141,6.333,21.189,10.062c0,1.635,0,3.271,0,4.904
		c-7.048-3.724-14.073-7.169-21.189-10.055c-6.998-2.849-14.108-5.145-21.156-7.154
		C182.133,123.373,182.133,121.737,182.133,120.099z M182.133,132.814c7.047,2.009,14.158,4.306,21.156,7.152
		c7.116,2.887,14.141,6.333,21.189,10.06c0,1.636,0,3.272,0,4.907c-7.048-3.727-14.073-7.169-21.189-10.056
		c-6.998-2.848-14.108-5.144-21.156-7.152C182.133,136.088,182.133,134.451,182.133,132.814L182.133,132.814z M284.882,94.67
		c-7.06,2.008-14.169,4.305-21.18,7.152c-7.105,2.885-14.126,6.332-21.189,10.06c0,1.637,0,3.271,0,4.906
		c7.063-3.725,14.084-7.168,21.189-10.056c7.01-2.846,14.12-5.145,21.18-7.151C284.882,97.944,284.882,96.308,284.882,94.67
		L284.882,94.67z M284.882,107.384c-7.06,2.01-14.169,4.306-21.18,7.152c-7.105,2.888-14.126,6.334-21.189,10.062
		c0,1.636,0,3.271,0,4.904c7.063-3.725,14.084-7.168,21.189-10.053c7.01-2.848,14.12-5.145,21.18-7.154
		C284.882,110.659,284.882,109.022,284.882,107.384z M284.882,120.099c-7.06,2.008-14.169,4.304-21.18,7.151
		c-7.105,2.889-14.126,6.333-21.189,10.062c0,1.635,0,3.271,0,4.904c7.063-3.724,14.084-7.169,21.189-10.055
		c7.01-2.849,14.12-5.145,21.18-7.154C284.882,123.373,284.882,121.737,284.882,120.099z M284.882,132.814
		c-7.06,2.009-14.169,4.306-21.18,7.152c-7.105,2.887-14.126,6.333-21.189,10.06c0,1.636,0,3.272,0,4.907
		c7.063-3.727,14.084-7.169,21.189-10.056c7.01-2.848,14.12-5.144,21.18-7.152C284.882,136.088,284.882,134.451,284.882,132.814
		L284.882,132.814z M174.31,76.435c17.95,4.281,38.967,11.289,56.006,27.569v83.1c-21.749-12.505-36.879-18.56-56.006-21.567V76.435
		L174.31,76.435z M150.127,88.557c4.964-1.191,9.941-2.317,14.906-3.363v87.181c26.919,4.687,37.713,7.748,67.457,26.258
		c-7.143-2.549-40.987-20.126-82.362-5.166c0-17.476,0-34.962,0-52.437C150.127,123.555,150.127,106.056,150.127,88.557z"/>
	<path id="path22" fill="#E30016" d="M360.74,331.525c-13.489,36.085-11.762,68.513,5.184,97.285
		c7.42-12.766,14.615-26.731,21.399-41.993c10.465-23.546,18.442-48.951,24.518-74.393c8.302-34.783,13.052-69.637,15.731-99.913
		c4.688-52.994,3.037-91.963,3.037-91.963c-22.186-3.984-41.953-12.289-58.815-23.412c-14.604,28.177-18.63,63.093-12.084,104.742
		c1.123,7.127,2.553,14.451,4.292,21.972c9.973,28.574,12.477,54.653,7.509,78.231C369.344,312.372,365.75,322.187,360.74,331.525
		L360.74,331.525z"/>
	<path id="path24" fill="#FFFFFF" stroke="#FFFFFF" stroke-width="0.216" d="M398.075,197.527
		c7.983,5.377,15.698,12.625,29.497,14.984c4.688-52.994,3.037-91.963,3.037-91.963c-22.186-3.984-41.952-12.289-58.815-23.412
		c-14.604,28.177-18.63,63.093-12.084,104.742C374.208,195.194,388.363,190.988,398.075,197.527L398.075,197.527z"/>
	<path id="path26" fill="#FFEC00" d="M371.511,302.082c13.712-5.085,27.155-1.639,40.33,10.343
		c-6.076,25.44-14.052,50.847-24.518,74.393c-6.784,15.262-13.979,29.229-21.399,41.993c-16.945-28.772-18.672-61.2-5.184-97.285
		C365.75,322.187,369.344,312.372,371.511,302.082L371.511,302.082z"/>
</g>
</svg>
